<svg xmlns="http://www.w3.org/2000/svg" width="1366" height="768" version="1.2" viewBox="0 0 1024.5 576"><defs><clipPath id="a"><path d="M10.238 123.016h274.309v75.714H10.238Zm0 0"/></clipPath><clipPath id="b"><path d="M18.656 286h66.055v74.965H18.656Zm0 0"/></clipPath><clipPath id="c"><path d="M103 105.875h6V108h-6Zm0 0"/></clipPath><clipPath id="d"><path d="M135 119h6.45v3H135Zm0 0"/></clipPath><clipPath id="e"><path d="M140 119h1.45v1H140Zm0 0"/></clipPath><clipPath id="f"><path d="M130.168 122.48h.965v.344h-.965Zm0 0"/></clipPath></defs><g clip-path="url(#a)"><path d="m197.36 123.277.19.012c1.84.125 3.423 1.043 4.743 2.746 6.45 13.79 11.055 21.524 13.816 23.203.957.801 2.09 1.457 3.399 1.973 5.117.824 8.293 1.66 9.523 2.504 6.293 7.851 12.274 13.375 17.946 16.57.98.676 6.93 2.461 17.855 5.363 1.625.606 2.906 1.23 3.844 1.872l15.851 20.808c-3.726-3.644-9.382-9.914-16.976-18.808-.957-.625-2.078-1.172-3.356-1.641-11.539-3.078-17.66-4.941-18.363-5.598-6.223-3.57-12.215-9.12-17.965-16.648-.957-.606-3.996-1.356-9.12-2.242-1.5-.586-2.798-1.32-3.88-2.196-3.562-2.523-8.332-10.422-14.308-23.699-1.012-1.285-2.125-1.926-3.34-1.93-1.719-.035-3.399.395-5.035 1.29-6.461 5.312-18.938 13.035-37.438 23.167-1.824.782-3.496 1.356-5.016 1.727-9.77 1.508-15.058 2.508-15.863 3.008-13.719 11.262-21.672 17.137-23.855 17.625-2.614.91-4.918.91-6.907.012l-15.109-14.602c-1.281-.863-2.793-1.172-4.535-.922-6.219 2.606-13.66 6.176-22.328 10.707-2.727 1.27-10.863 6.055-24.418 14.356A141.406 141.406 0 0 1 29 186.043c-6.39 3.144-12.66 5.492-18.809 7.043 7.79-3.504 14.559-6.906 20.309-10.2l28.031-16.948c12.68-6.282 21.094-10.051 25.246-11.313 2.235-.266 4.075.2 5.516 1.398l14.543 14.243c1.75.746 3.719.664 5.902-.246 1.934-.637 9.602-6.38 23.004-17.235.856-.676 6.305-1.754 16.348-3.238a31.42 31.42 0 0 0 4.402-1.5c18.496-10.094 31.024-17.832 37.582-23.219 2.188-1.14 4.281-1.66 6.285-1.55" style="stroke:none;fill-rule:nonzero;fill:#243b98;fill-opacity:1"/></g><path d="M300.488 226.133c15.29-4.856 29.18-11.793 42.965-19.965-14.683 4.914-29.27 11.105-42.726 19.289-.805.648-2.438 1.336-.239.676M248.86 197.105c31.245 5.934 65.058 7.872 74.394 7.247-23.317-4.852-47.73-6.665-71.55-7.547-.915.058-4.563-.043-2.845.3M221.64 225.367c19.903 1.348 37.926 4.39 51.423 2.88-14.18-3.673-29.16-3.329-43.852-4.634-18.332-.98-33.906-4.023-50.52-2.793 13.871 3.403 28.555 3.188 42.95 4.547M247.46 197.762c-11.987 2.488-23.78 6.16-35.417 10.383.727-5.083 1.254-10.293.316-15.7-2.156 4.692-1.117 10.52-.761 15.864-1.164.421-2.32.847-3.477 1.285.707-4.477 2.242-9.582.629-14.371-.313 1.285-.629 2.562-.832 3.867-.684 3.281.09 6.797.2 10.504-5.563 2.078-11.09 4.265-16.583 6.496a89.126 89.126 0 0 0-2.844 1.398c.22-.023-.004.004.621-.105 26.09-6.207 50.547-15.512 58.149-19.621M274.34 236.313c-23.774-5.27-52.188-5.915-62.43-5.454 19.008 4.016 38.531 5.59 58.172 5.946 1.129-.125 6.016-.149 4.258-.493M198.082 229.781c-1.394-1.832-10.707-2.57-15.055-2.386-1.425.035-2.468.097-3.187.18.773-1.95.488-4.235-.465-6.462-.582 2.102-.082 4.102.074 6.516-1.543.242-.98.621.692 1.02-13.305 6.226-30.446 16.093-38.407 23.878 8.344-3.566 15.86-7.972 23.555-13.047-.012.004-.02.012-.027.02 5.082-3.2 10.144-6.887 15.027-10.816 4.578 1.046 16.649 2.175 17.793 1.097M133.93 250.434c15.96-8.153 31.195-18.844 45.23-30.16-15.742 8.581-31.367 18.417-45.23 30.16M186.54 289.383c1.464-15.531 1.468-30.621-.013-46.238-1.757 15.867-2.32 32.18-.699 48.226.238 2.809.469-.941.711-1.988M183.184 238.688c-1.543 10.066-1.786 20.527-1.114 30.875 2.035 20.011 2.672-30.797 1.114-30.875M182.285 292.688c-5.219-11.778-13.16-22.555-20.996-33.051 1.031 2.18 2.418 4.703 3.797 7.082 0 0-.004-.004-.004-.008 5.211 8.8 10.14 18.16 17.203 25.976M119.965 290.668c-29.953-.043-59.469-1.664-89.356-2.203-36.277 2.601 62.555 2.734 61.465 2.973 27.004-.41 70.254 4.367 83.64.925-18.6-2.508-36.921-1.043-55.75-1.695M102.055 258.668c-32.57 8.941-75.344 24.7-79.668 27.687 12.508-2.09 24.222-7.488 36.422-11.43 14.78-5.527 29.16-9.468 43.246-16.257" style="stroke:none;fill-rule:nonzero;fill:#243b98;fill-opacity:1"/><path d="M161.441 260.7c-4.472-.954-10.191-1.555-16.367-1.95 11.106-3.234 27.383-12.945 38.832-20.926-13.539 5.426-26.972 12.063-39.035 20.91-9.887-.62-20.934-.726-29.918-.918-37.41 1.38 46.406 4.657 46.488 2.883M51.469 297.832c-.016-.004-.04-.004-.106-.016.04.008.004.004.106.016M51.363 297.816c-.027 0-.05-.003-.074-.003l.074.003M78.988 319.14c-.191 3.618-.332 7.25-.394 10.891-4.332.012-8.664.047-12.992.114a462.818 462.818 0 0 0-.317-11.176c4.817.062 9.38.117 13.703.172Zm15.184.2c-.297 3.547-.488 7.125-.508 10.715a1747.7 1747.7 0 0 0-13.578-.024c.023-3.62-.04-7.25-.148-10.875 5.074.063 9.808.125 14.234.184Zm-15.469 22.058c-4.39.075-8.777.157-13.164.274.102-3.703.117-7.414.066-11.137 3.793.063 8.196.121 12.977.18-.047 3.555-.02 7.12.121 10.683Zm-30.656-22.64c5.933.07 11.539.14 16.836.203a462.73 462.73 0 0 0-.559 11.207c-2.707.043-5.41.105-8.113.184 2.078.05 4.836.109 8.102.164a267.09 267.09 0 0 0-.176 11.195c-5.067.144-10.13.332-15.192.582 5.059-.012 10.125-.012 15.196-.012.039 4.39.203 8.79.546 13.188.438-4.352.704-8.758.836-13.188 4.399-.004 8.805-.004 13.215-.008.094 2.118.227 4.23.403 6.352a161.8 161.8 0 0 0 .539-6.352c22.379-.043 44.812-.253 67.066-1.398-3.016-.414-6.21-.605-9.64-.543-19.09.797-38.239.77-57.372 1.055.215-3.528.32-7.082.352-10.657 4.297.051 8.875.102 13.574.141 0 2.36.078 4.719.25 7.074.39-2.332.692-4.687.918-7.062 37.723.328 82.363.328 53.121-1.012-17.62.496-35.328.29-53.047.192.309-3.536.457-7.11.489-10.708 61.066.817 61.906.98 64.386.122-21.523-.872-42.93-.735-64.382-.727.02-2.984-.04-5.977-.145-8.98 37.965.285 61.477 1.671 70.336-.38-34.188-3.476-69.059-.535-103.578-2.234-37.938 2.156 24.144 2.922 25.68 2.574 2.566.012 5.074.024 7.523.04a225.4 225.4 0 0 0-.988 8.98c-4.762 0-9.528-.004-14.297-.031a600.566 600.566 0 0 0-.364-8.82c-.203 2.925-.39 5.863-.55 8.816-4.578-.024-9.157-.074-13.742-.149-.047-1.125-.098-2.25-.149-3.37-.07 1.12-.14 2.241-.215 3.366-3.89-.07-7.781-.156-11.683-.269-.934.027-3.934.156-5.192.285a90.468 90.468 0 0 0-.715-5.101c-2.546 12.718-2.3 26.03-.629 39.187 1.739-11.02 2.602-22.535 1.36-33.906" style="stroke:none;fill-rule:nonzero;fill:#243b98;fill-opacity:1"/><path d="m175.063 353.617.207.012a136.617 136.617 0 0 0-8.739-.121c1.352-13.5 1.703-27.45-.566-41.07-2.016 13.46-1.55 27.378.035 41.078-1.324.027-2.652.074-3.965.132-38.23 2.11-76.344 1.946-114.543 3.868-.953.164-2.031.164.02.351 98.836-1.441 132.261-1.555 135.273-3.305 2.453-.343-7.043-.921-7.722-.945" style="stroke:none;fill-rule:nonzero;fill:#243b98;fill-opacity:1"/><path d="M175.063 353.617c-.02 0-.047-.004-.07-.004.023 0 0 0 .07.004M185.055 298.145c-2.586 17.082-1.348 34.695-.14 52.09 1.288-17.102 2.655-34.864.14-52.09M181.043 351.156c1.312-10.941 2.441-22.355.094-33.476-2.344 10.773-1.39 22.37-.094 33.476M347.129 205.293c11.433 10.68 25.41 18.937 39.215 26.691-12.137-9.886-24.813-19.82-39.215-26.691M346.379 198.8c17.195 15.102 44.82 31.442 50.93 34.669-20.883-16.867-43.97-31.813-50.93-34.668M305.922 242.34h.039-.04Zm33.621 2.539c-10.645-1.871-21.652-2.629-32.625-2.559-1.633.032-4.04.086-5.992.207 1.176.246 2.957.606 4.41.871 14.27 3.043 49.344 3.899 34.207 1.48M378.102 243.754c-2.04 14.437-.872 29.465.597 44.168 1.043-14.586 1.871-29.524-.597-44.168M387.3 293.637c1.446-16.676 1.805-34.035-.679-50.875-2.023 16.636-1.219 34.05.68 50.875M363.07 250.059c-1.906 7.847-1.105 16.406.254 24.613 1.121-8 1.918-16.43-.254-24.613M334.07 318.078c-1.62-.32-3.492-.398-5.293-.527-.129-3.188-.195-6.39-.109-9.617 2.117-.059 4.039-.16 5.602-.293.05 3.277-.06 6.812-.2 10.437Zm-.41 10.414c-1.3-.297-2.8-.539-4.34-.637-.168-3.078-.36-6.164-.5-9.27 1.664.067 3.496.063 5.235-.05-.137 3.293-.297 6.652-.395 9.957Zm-3.973 9.875c-.011-3.148-.144-6.297-.308-9.46 1.406-.048 2.879-.098 4.273-.137-.101 3.44-.129 6.812.012 9.98-1.059-.172-2.539-.316-3.976-.383Zm-4.375.34c-.851.191-1.41.34-1.738.457.004-3.36-.156-6.742-.363-10.144.98.043 2.715 0 4.719-.067.082 3.207.23 6.371.433 9.379-1.422-.008-2.62.098-3.05.375Zm12.977-31.863c-7.371-1.383-15.16-1.926-22.973-1.656-30.867 1.53-2.921 3.21 13.344 2.746-.348 3-.57 6.23-.687 9.558-.703-.043-1.133-.09-2.403-.09-4.902.184-2.125.895 2.364 1.141a192.49 192.49 0 0 0-.028 9.262c-.238 0-.476 0-.715.007-1.972.325-3.261.57-4.007.75-.414-6.742-.985-13.539-.786-20.292-1.101 13.445-.199 27.382.508 41.199.469-3.29.653-6.617.668-9.969.778.086 2.723.016 4.863-.066.223 3.117.5 6.046.81 8.66.3-2.903.425-5.805.44-8.707 1.418-.055 2.84-.102 4-.102.16 3.207.5 6.195 1.133 8.813-.004-2.942.02-5.871.051-8.793.043.004.09.004.129.007.21-.09.145-.187-.125-.285.074-6.851.172-13.668-.004-20.55.172-.016.348-.036.52-.051a9.306 9.306 0 0 0-.528-.16c-.09-3.516-.258-7.059-.539-10.633 2.078-.184 3.52-.445 3.965-.79" style="stroke:none;fill-rule:nonzero;fill:#243b98;fill-opacity:1"/><path d="M338.375 349.691c1.629-15.543 1.785-31.285-.219-42.597-2.101 12.765-1.351 25.902-.418 38.957.16.949.469 5.515.637 3.64M378.969 350.293c1.695-16.215 2.156-33.074-.14-49.527-2.173 16.226-1.665 33.015.14 49.527M388.234 328.734c.243 2.176.59 4.356 1.051 6.536 2.059 6.187.387-25.403-.324-25.774a64.72 64.72 0 0 0-.906 6.656c-.227-4.32-.637-8.636-1.293-12.93-2.29 15.579-1.36 31.883.14 47.735.645-7.328 1.188-14.762 1.332-22.223M330.36 288.383c2.738-9.766-.825-1.887.785-13.625 1.484.07 2.98.156 4.488.258-1.238 1.906-1.504 4.136-.559 7.933-.652 2.086-.55 4.778.106 7.313-1.578-.04-3.153-.082-4.73-.114-.016-.406-.098-1.086-.09-1.765Zm-.352-5.414c0 .011 0 0 .004.031 0-.008-.004-.02-.004-.031Zm10.71-7.606c-1.402 2.012-2.218 4.782-1.058 7.711-.555-.18-.223 6.094.102 7.313-1.508-.043-3.02-.086-4.532-.125.043-2.39.575-5.028 1.536-7.657-.903-2.414-1.829-4.453-.973-7.578.262.016.52.032.781.051 1.383.078 2.766.18 4.145.285Zm16.555 8.34c-1.066.473-.238 5.98.266 7.406a482.494 482.494 0 0 0-3.398-.171v-.168.027c-.164-2.258.023-4.434.441-7.238-.496-2.043-1.055-4.508-.187-6.973 1.382.121 2.765.23 4.148.332-1.164 1.574-1.387 4.523-1.27 6.785Zm-7.722-5.422c.043-.472-.051-.582.414-2.094 1.39.13 2.777.258 4.168.375-1.918 2.793-1.594 10.137-.125 14.372-1.492-.075-2.985-.141-4.477-.204-.242-5.668 1.367-3.453.02-12.449Zm-4.719 11.285v-.011.011Zm.117.993a8.305 8.305 0 0 1-.117-1.036v.012-.031.016c.75-4.41-.066-8.985.2-13.793l4.652.433c-1.418 1.973-1.594 10.453-.454 14.563a522.501 522.501 0 0 0-4.28-.164Zm-4.21-14.63c.038-.136.077-.261.16-.55 1.335.105 2.671.219 4.003.34-1.46 4.058-1.949 10.035.004 14.836-1.648-.059-3.3-.114-4.953-.164.004-.024.012-.055.016-.082-.031-2.555.777-4.852 1.226-7.551-1.007-1.824-1.273-4.305-.457-6.828Zm10.288-29.484c.012-.004 0 0 .024-.011a.064.064 0 0 1-.024.011Zm-60.66 43.64c19.551 2.743 38.813 1.927 58.543 3 9.68.985 39.7.95 29.156-.472-6.757-.648-13.496-1.125-20.222-1.488.027-.371.015-1.074-.074-2.219.058-.285-.415-2.101 1.117-5.031-.371-2.176-.907-4.652.113-6.926 1.262.086 2.531.16 3.8.223-1.144 2.828-1.245 9.137.27 14.023-.402-1.98.227-4.664.758-7.066-.52-2.047-1.14-4.422-.765-6.945 1.625.074 3.25.12 4.886.132-1.383 2.532-1.61 9.961-.55 13.977-.696-4.07 2.222-3.586.46-10.918.02-.832.118-1.93.496-3.055 1.247.004 2.5-.007 3.762-.05-.012.023-.027.046-.035.07 0-.004.004-.004.004-.008-.066.113-.125.23-.191.344.003 0 .003-.004.003-.004-1.671.656-1.34 12.965.41 13.332-.765-2.297.028-4.074.348-6.61-.851-1.742-1.449-3.316-.515-7.124.468-.016.93-.036 1.394-.06.008.06.016.118.027.173.008-.055.012-.113.02-.172.703-.031 1.41-.074 2.117-.125-.183.652-.55 1.496-.762 2.351-.375 1.391-.82 2.711-.14 4.598-.453.902-.606 4.05.652 6.617-.484-4.164.696-1.812.383-13.574a92.35 92.35 0 0 0 1.434-.117c-.48-.043-.961-.09-1.438-.133l-.012-.305a2.48 2.48 0 0 1-.046.301c-.707-.062-1.415-.133-2.122-.191 1.243-10.578 1.797-21.602-.253-32.356.066-.004.125-.011.19-.02-.07-.007-.132-.019-.198-.027a87.312 87.312 0 0 0-.29-1.457c-.085.454-.163.91-.238 1.364-3.37-.59-6.914-1.504-10.718-1.746-3.864 1.027-8.239 2.425-12.184 4.57 2.648-.426 5.352-1.305 8.324-2.082 4.766-1.574 9.356-.219 14.547-.559a73.018 73.018 0 0 0-.625 4.965c-2.992-.84-5.754-2.5-9.273-2.652-1.864.676-17.84 5.394-6.543 3.199 5.004-1.977 10.277-1.379 15.812-.508-.812 9-.066 18.223 1.25 27.285-12.14-1.09-24.344-1.949-36.62-2.671 1.304-7.145 2.304-14.708.53-22.157-2.09 6.992-1.652 14.68-.683 22.149-9.121-.54-18.281-1.004-27.496-1.422-.149-.02-.68-.008-1.407.02.493-3.7 1.282-12.954.536-18.837 9.418 1.422 18.601 1.696 28.324.508-8.719-2.133-17.922-2.875-27.149-2.668-11.976.637-9.328.598-6.722 1.2 1.836.359 3.66.675 5.472.949-1.136 6.023-1.242 12.347-.468 18.847-2.125.078-5.934.313-7.016.48.191-6.757 1.36-13.78-.508-20.769-.285 6.723-.375 13.727.375 20.793-.203.047-.222.078.012.11.035.304.062.609.101.914.004-.297.012-.602.016-.903.024.004.047.004.078.008 1.946.215 3.887.39 5.828.535-1.5 3.438-2.222 4.778.09 9.649-.613 1.828-.965 4.074-.043 6.312.168-.644-.14-2.492.492-3.922 2.973-3.992-1.8-3.464-.402-12.03 3.285.241 6.563.394 9.852.519-.77 2.648-1.649 4.027-.461 9.496-.496 1.828-.555 3.77.422 5.969-.278-1.97.175-3.766 1.003-6.09.196-1.512-1.347-3.805-.957-9.375 3.266.12 6.54.214 9.852.34-1.8 2.628-1.742 8.421-1.098 15.132.223-1.66.395-3.453 1.086-5.46l-.035.109c.02-.051 0 0 .05-.156 1.056-1.47-1.144-4.06.005-9.625 1.484.05 2.976.113 4.476.187-1.078 1.79-2.504 4.648-.976 8.277-.442 2.059-.64 4.664.37 7.121-2.991-.07-5.995-.128-8.995-.183-.012-.184-.031-.36.027-1.13 2.074-8.108-.039-3.85.031-14.042-.718 1.781-1.722 4.047-.878 6.46.94 2.571-.403 5.74.718 8.708-7.8-.145-15.617-.266-23.48-.453-1.133.097-9.844.34-7.434.578M298.703 294.508c-33.703.39 22.809 3.023 23.367 2.644 27.575.426 61.25 3.72 67.95 1.278-30.383-3.61-60.66-2.348-91.317-3.922M288.852 324.54c1.28-7.74 2.074-16.185.12-24.18-1.972 7.663-1.37 16.167-.12 24.18M283.977 299.39c-2.106 17.157-2.383 35.07-.27 52.477 2.188-14.484 1.793-29.515 1.133-44.328.004.078.008.156.015.234-.144-2.535-.433-5.73-.878-8.382M350.637 352.965c10.375-.235 20.504-.223 30.855-1.727-6.105-.566-12.258-.648-18.586-.593-22.683 1.492-45.8-.848-68.531 2.671.617.102 1.535.247 2.563.375 18.109 1.61 35.523-.847 53.699-.726M410.008 310.363c.265.055.59.121.992.207-.184-.058-.54-.12-.992-.207M410.008 310.363c-.168-.031-.309-.058-.426-.078.148.027.29.055.426.078M440.508 303.941c-1.723 15.258-1.922 31.23.015 46.715.04.352.075.606.11.781-3.328-.011-6.742-.41-10.2-.753-.855-15.16 2.403-31.07-.597-46.364-1.156 6.47-2 13.293-1.926 20.125 0-.132.004-.265.008-.402.082 8.738-1.059 17.562.988 26.5-2.511-.227-5.035-.387-7.574-.316-3.785-.66-27.594 3.632-19.957 3 17.73-.579 35.344.964 40.273-1.793-.265.003-.527.007-.793.007.086-.496.165-1.43.297-2.066 1.493-15.3 1.243-30.277-.644-45.434M412.688 284.504c-2.657-1.664-13.383-2.05-18.934-1.629-19.242 1.688 16.984 3.484 18.933 1.629M418.465 285.691c1.879-10.336 1.074-21.23-.7-31.761-.667 4.343-.882 9.101-.949 13.738.004-.043.004-.09.004-.137-.07 5.965.13 12.114 1.645 18.16M396.21 250.727c-23.175 1.117 19.642 4.168 21.567 2.27-6.953-1.642-14.105-2.454-21.566-2.27" style="stroke:none;fill-rule:nonzero;fill:#243b98;fill-opacity:1"/><path d="M451.082 246.707c-.016.07-.035.145-.05.219-.075-.024-.15-.04-.22-.055l.27-.164Zm2.145.844a50.781 50.781 0 0 0-1.868-.543c.778-1.29 1.465-2.774.54-4.254 1.574-.129 1.773-.367-.004-.742l-.415-.063c.04-1.394-.964-2.855-2.257-4.07.39 1.594 1.351 2.426 1.601 3.969-14.273-2.121-28.82-2.922-43.469-2.942-24.785 1.32 31.34 4.434 43.528 3.906a7.002 7.002 0 0 1-.086.848c.238-.281.406-.57.52-.867.09-.008.183-.012.269-.016.207 1.13-.121 2.38-.441 3.676-.38.047-.774.121-1.176.219-2.094-.465-4.313-.73-6.57-.606-6.212.438-1.368 1.368 3.484 1.72-2.86 1.35-5.59 3.573-6.531 6.116a22.127 22.127 0 0 0-.094-.71c-1.797 13.82-2.055 28.23-.004 42.23.289 1.96.238.898.527-.617 1.707-13.29 1.438-26.368-.273-39.735 1.887-3.254 5.117-5.168 8.558-7.175 2.032.066 3.739-.02 4.16-.344" style="stroke:none;fill-rule:nonzero;fill:#243b98;fill-opacity:1"/><path d="M448.738 238.941c-27.152-10.015-61.445-18.082-66.84-18.093 22.883 9.425 60.204 17.547 66.461 18.422.758.03 2.438.507.38-.329M451.852 242c.02.004.027.008.043.012.011 0 .023.004.03.004-.023-.004-.05-.012-.073-.016M226.113 243.07c-11.273.293-2.863 1.637 2.969 2.453-.152 1.844-.375 3.688-.648 5.973-.301 1.926-.41 3.867-.418 5.82-1.371.051-2.922.243-4.496.797a34.76 34.76 0 0 0-.739-5.242c-.043 2.07-.117 3.938-.21 5.621-.04.02-.083.035-.126.059.043-.008.082-.012.125-.02-.914 16.559-3.523 15.297 9.043 14.11-.023 0-.043.004-.066.007 7.266-.722-5.445-.5-8.246-1.289.12-4.171.512-8.523.238-12.925 1.434-.114 2.895-.063 4.48.066.043 3.555.352 7.172.387 10.863.297-3.5.73-7.097.992-10.73.41.043.836.09 1.27.14-.059-.007-.117-.011-.18-.02 2.14.259 4.364.34 6.645.325-.031 3.652-.028 7.352-.11 11.059v-.008.02-.008c-.011.086-.023.168-.03.254.69-2.942 1.3-7.04 1.484-11.332 2.562-.051 5.183-.2 7.808-.329-.289 4.383-.496 8.817-.5 13.297.59-4.36 1.508-8.828 1.906-13.355a131.34 131.34 0 0 1 2.762-.098 77.582 77.582 0 0 0-1.469-.137c.012 0 .024.004.028.004-.426-.047-.86-.093-1.285-.129.296-3.628.246-7.289-.586-10.964-.278 3.57-.575 7.183-.82 10.843-2.606-.191-5.188-.265-7.805-.347.078-3.688-.176-7.453-.993-10.7-.253 3.477-.34 7.04-.378 10.653-2.497-.082-5.032-.192-7.66-.434.242-3.926.25-7.894-.352-11.84 1.926.27 3.562.48 4.097.575 7.27.757 14.993.66 22.489.023-7.489-1.688-15.45-2.957-23.422-3.094a87.622 87.622 0 0 0-6.184.04" style="stroke:none;fill-rule:nonzero;fill:#243b98;fill-opacity:1"/><path d="M220.117 276.043c12.961 3.129 25.75 3.5 39.047 2.488a116.947 116.947 0 0 0-3.668-.797c2.137-10.535 2.957-21.617.965-32.507-1.434 5.343-2.031 11.113-2.203 16.953.004-.028.004-.055.004-.082-.14 4.953.191 10.386.89 15.57-7.652-1.52-15.71-2.363-23.582-2.512a104.425 104.425 0 0 0-6.145.027c-.937.137-8.894.325-5.308.86M218.875 275.266c2.219-6.493 3.156-21.278 1.184-30.684-2.621 9.805-2.516 20.387-1.184 30.684M220.18 341.602c.011.101.027.199.035.296.02-.093.035-.191.05-.285 7.614.867 35.801.649 37.235-.586.41-.054.656-.093 1.262-.18-.207-.042.004 0-.61-.09-6.562-.816-12.664-1.1-19.425-1.308h.136c-3.25-.082-7.148-.004-10.672.215-3.671.313-6.183.594-7.746.848.825-5.235 1.133-10.586 1.348-16.114.082-5.425-.05-11.007-1.168-16.558 7.754.832 35.363.7 37.313-.664-5.965-1.344-18.938-1.598-27.395-1.344-12.305.875-13.824 1.543-10.227 1.969-2.12 10.597-1.675 21.867-.273 32.777-2.434.434-2.012.774.137 1.024" style="stroke:none;fill-rule:nonzero;fill:#243b98;fill-opacity:1"/><path d="M255.953 309.855c-2.43 8.997-2.187 18.801-.824 28.243 1.844-9.086 2.805-18.805.824-28.243M221.793 324.379v.02c0 .015 0 .035-.004.054.004-.027.004-.05.004-.074M373.469 350.063c1.953-16.422 2.281-33.465 1.062-50.211-4.289 16.222-1.437 33.449-1.062 50.21M289.055 225.309c.007-.02.011-.043.015-.067l-.011.059c0 .004-.004.008-.004.008" style="stroke:none;fill-rule:nonzero;fill:#243b98;fill-opacity:1"/><path d="M289.453 222.64c-.023.024-.039.048-.058.067l-1.497.832c-.878.711-2.535 1.379-.253.715.285-.106.57-.207.855-.313-1.223 1.95-1.914 4.348-1.531 6.82-4.297.485-8.653 2.032-12.957 3.645.418-2.058.687-5.687.199-6.379-1.094 2.282-1.32 4.668-.95 7.504.216.711.493.106.727-1.02 2.305 1.966 10.477-1.202 13.973-3.847-.324.024-.649.055-.973.094.957-2.117 2.047-4.512 2.375-7.13 24.742-9.023 45.262-19.55 54.532-25.456-18.68 6.203-36.957 14.836-54.446 24.504 0-.012.004-.024.004-.035" style="stroke:none;fill-rule:nonzero;fill:#243b98;fill-opacity:1"/><path d="M275.105 228.422c8.168-2.715 19.465-9.234 7.606-5.371-1.063-.465-9.961 5.906-7.606 5.37M427.813 298.84c-3.16-.133-6.344-.168-9.543-.098-8.45.02-17.165.168-25.707 1.781.226.04.414.07 1.218.207 11.457 1.36 22.75 1.56 34.125.723.102 2.871.172 5.746.184 8.621.715-2.87 1.223-5.797 1.59-8.765 3.808-.313 7.629-.743 11.468-1.286a141.322 141.322 0 0 0-11.207-1.082c.82-8.394.59-17.043.454-25.5 0 .141-.004.286-.008.426-.43-29 7.058-19.472 3.558-31.14.985 5.539-4.57 8.52-6.07 13.609-1.738 13.945-.637 28.21-.063 42.504M390.14 350c-.277.016-.55.035-.827.05.183.063.343.087.968.212l-.14-.262M317.73 356.324c-3.46-.21-26.777 1.52-19.71 2.04 15.238 1.265 30.007-.47 45.43-.536 17.937-1.125 35.484.164 53.456-2.84-5.05-.465-9.976-.793-15.344-.812-20.992.89-42.472 1.476-63.832 2.148M198.89 347.21c0 .009 0 .013.005.02-.004-.007-.004-.011-.004-.02Zm69.993 7.587c-29.613.808-51.828.5-66.43.844 1.934-8.598.09-17.657.04-26.707-.204-10.532.882-20.29-.317-30.868-2.555 9.79-2.684 19.793-2.067 29.852a217.836 217.836 0 0 1-.547-6.074c-1.18 9.238-2.414 18.773-.132 28.25.164.828.27 1.394.441 2.351.07-.199 0 0 .164-.582.95-4.215 1.137-8.398.992-12.597.508 5.468 1.051 10.937 1.36 16.379-6.383.152-11.313.433-14.754.984-3.414.617-5.113.504-1.13 1.008 14.532 1.758 28.474.246 43.052.308 19.543-.746 39.476 1.02 59.11-1.968-6.419-.891-12.985-1.243-19.782-1.18M283.617 295.102c-1.191-.239-11.777 1.617-9.238 1.82 8.797 1.25 16.191-2.883 9.238-1.82M275.3 293.992c5.356-.246 15.794-5.828 8.641-4.113-.968-.137-11.34 4.742-8.64 4.113" style="stroke:none;fill-rule:nonzero;fill:#243b98;fill-opacity:1"/><path d="M286.957 295.145c.453-1.282.606-2.758.86-4.317.007.082.011.16.019.238.035-.312.062-.625.098-.937.09-.457.187-.918.308-1.383-.058.04-.117.086-.172.129 1.657-15.887 2.407-32.344.34-48.46-2.387 15.937-2.094 32.507-.73 48.831-1.285 1.422-1.23 3.824-.723 5.899M338.633 228.52c-40.528 2.777 40.863 5.05 44.68 3.296-18.852-1.382-36.415-3.68-44.68-3.296M212.246 192.164c4.184 1.012 8.61 1.008 13.27.887-4.094-.926-8.184-2.63-12.793-2.805-.727-.387-9.262 7.262-.477 1.918M226.047 199.473c-.008.043-.02.086-.024.132.364-1.968.872-4.632-.093-6.933-1.336 2.117-.774 16.379.117 6.8M184.39 230.918c.434 1.727.602 3.797 1.673 5.797.097-1.813.238-4.176-1.672-5.797" style="stroke:none;fill-rule:nonzero;fill:#243b98;fill-opacity:1"/><path d="M283.93 243.07c-.168 5.496.754 11.176.812 16.868.125 10.011-.64 19.406-.113 29.574 2.933-11.508.469-38.535.219-44.43.004.043.004.082.004.129-.465-2.07.53-5.938-.293-7.7-.383 1.798-.567 3.626-.625 5.473-2.622-.484-5.442-1.312-8.332-1.945-12.317-2.64-24.559-2.219-37.196-3.105-11.406-.594-22.363-1.754-33.554-2.496.109-.211.234-.383.363-.508 1.406-2.868 2.18-7.149-.57-9.504-.07-.055-.157 1.023.066.203 1.492 4.191-.715 6.64-2.617 9.629a286.5 286.5 0 0 0-10.489-.45 226.18 226.18 0 0 0 9.762 1.665c-.441.797-.832 1.644-1.105 2.582-1.059 2.347-.828 28.027-.2 43.218-.19 4.735.11 10.547.602 12.395-2.258 0-4.516-.008-6.77-.023-40.808 3.707 77.532 3.332 75.2 1.605-22.317-2.25-45.125-1.598-67.774-1.582.22-.785.446-2.387.668-5.066a5.716 5.716 0 0 0-.015.265c.117-1.258.101-2.582-.02-3.933 1.211-11.872.102-40.797 2.352-49.043 14.797 2.027 29.898 2.87 44.886 4.05 11.914.348 22.774 3.743 34.739 2.13M30.797 353.453l-.059-.144c-.008-.016-.02-.032-.027-.047.027.066.059.125.086.191" style="stroke:none;fill-rule:nonzero;fill:#243b98;fill-opacity:1"/><g clip-path="url(#b)"><path d="M37.75 358.059c1.71-21.774 1.68-44.043.762-55.27 14.086.39 43.41.555 45.906.55-11.676-1.429-23.64-1.335-35.715-1.816a771.8 771.8 0 0 0-10.273.305c-.188-2.047-.407-3.66-.657-4.77.079-.027.153-.054.215-.081 2.637-.235-8.808-1.536-10.496-1.27-2.648.203-4.336.402-5.281.598-.191-1.973 1.219-5.942-1.637-9.793.98 2.941-.035 6.746 1.457 9.832-4.578 1.05 12.168 1.867 15.664.742-.199 1.504-.379 3.11-.539 4.789-2.656.105-4.367.203-5.277.297-.988-3.3-4.488-5.281-8.899-4.57.004.05-2.308.195-1.03.351-.009-.004-.016-.004-.024-.008 4.379.743 8.879 1.637 10.191 6.996a7.141 7.141 0 0 0-.152-2.437c1.004.086 2.793.168 5.113.238-1.683 18.867-.953 46.867.55 55.317-.612 0-1.183.007-1.667.02-1.875-2.407-3.172-6.536-6.703-7.294 1.465-12.098 2.21-29.543.687-44.168.196.094.387.188.586.281a19.577 19.577 0 0 0-.625-.64c-.18-1.695-.39-3.352-.64-4.957a128.118 128.118 0 0 0-.453 3.226c.054-2.992-1.583-5.953-5.391-6.12 2.453 1.113 4.336 3.59 5.16 6.636-5.262-4.445-8.062-2.438-8.172-9.082-.117-1.25-.543-2.824-1.754-4.031 2.867 9.777-4.64 7.035 9.977 14.058-1.719 14.703-.93 29.86.273 44.735a6.454 6.454 0 0 0-.289-.04c.106.07.203.13.305.196.039.527.082 1.047.129 1.57.054-.445.113-.894.172-1.351.547.418.976.96 1.515 2.21 4.38 7.708 1.086 9.145 10.969 6.313 7.68-1.125.711-1.55-3.957-1.562" style="stroke:none;fill-rule:nonzero;fill:#243b98;fill-opacity:1"/></g><path d="M301.934 282.613c-.899 1.715-1.215 3.93-.25 6.254 0-.004-.004-.008-.004-.008.23-.277-.188-2.586.644-4.082 3.324-4.472-2.16-1.578-.117-11.37-1.117 2.734-3.168 4.968-.273 9.206M310.785 282.785c0 .582.438 7.82.914 6.11-.293-2.094.516-3.5.621-5.836-.922-2.504-1.535-5.356-.937-8.442-1.067 2.094-2.059 5.34-.598 8.168M340.746 275.91c-.004.004-.004.012-.008.02 0 .004 0 .007-.004.007l.012-.027M356.469 249.816c-.028.004-.055.012-.082.016h-.004c.027-.004.058-.012.086-.016M351.035 250.77c.04.007.078.015.117.02.442.01.371.007-.117-.02M351.035 250.77c-14.836-2.168-29.57-2.958-44.719-3.29-25.132.383 38.95 3.016 44.72 3.29M315.68 257.957c.004.012.004.027.004.047-.07-.89-.157-1.098-.176-2.59-1.63 5.324-.82 11.129-.852 17.016.668-1.7 1.344-11.692 1.024-14.473M322.09 267.7c.32-3.794.848-7.743-.887-11.782-.281 1.906.3 25.598.887 11.781M323.379 272.148c.094-4.906 1.918-9.347-.172-14.605-.023.738-.055 1.477-.074 2.21.004-.026.004-.058.008-.089-.188 3.848-.766 9.285.238 12.484M328.387 255.09c0 5.445-1.157 11.191.144 16.945.016-.558-.02-1.09-.011-2.035.222-4.613 1.796-9.926-.133-14.91M390.871 255.207c3.05 1.84 14.012 1.469 23.43 2.184.054 3.02.508 6.562-.067 9.988.121-.348.297-.879.543-1.668 2.133-12.953 5.778-8.809-23.906-10.504M391.469 279.758c-.024-.008 0 0-.055-.031a.25.25 0 0 0 .055.03Zm13.281.719h-.031.031Zm.773.086c-1.418-.293-9.738-1.196-13.855-.793-.527-7.735 1.176-16.106-.77-24.114 1.051 31.723-7.355 25.5 14.625 24.906" style="stroke:none;fill-rule:nonzero;fill:#243b98;fill-opacity:1"/><path d="M394.535 257.336c-.933 6.703-.316 15.219-.57 22.098.863-7.11 1.867-14.602.57-22.098M393.953 279.563a.081.081 0 0 0 .008-.024c.004-.035.004-.074.004-.105l-.012.128M407.05 280.613v.004a5.86 5.86 0 0 0 .126-.976c-.04.343-.082.671-.125.972M406.566 266.2c-.003-.067 0-.009-.003-.15 0 .052 0 .102.003.15" style="stroke:none;fill-rule:nonzero;fill:#243b98;fill-opacity:1"/><path d="M413.043 268.293c1.816-.113-2.527-.66-5.281-.754.02-3.465-.07-6.98-.29-9.918-.757 3.195-.925 6.527-.855 9.91-.082.004-.16.008-.234.016-1.23.05-2.602.058-4.07.156.355-3.367.46-6.789-.102-10.265v.019c-.008-.156.004.004-.012-.469-.59 3.54-.824 7.14-.976 10.801l-.102.012a.79.79 0 0 0 .102.015c-.153 3.559-.223 7.184-.465 10.875.441-3.507 1.12-7.086 1.523-10.726 1.41.203 2.871.422 4.36.555.113 3.43.421 6.906.566 10.355-.012.254-.016.508-.031.766.316-2.762.523-6.817.574-11.04 1.734.098 3.508.047 5.293-.308M411.355 280.527c-.011 0-.02 0-.03.004.01-.004 0 0 .03-.004Zm-.648.207c5.648.618 6.145.59 4.586-9.41-.39 2.59-.602 5.051-.457 8.094.383.3-5.742 1.367-4.129 1.316" style="stroke:none;fill-rule:nonzero;fill:#243b98;fill-opacity:1"/><path d="M414.758 279.488a.325.325 0 0 0 .07-.05c.004 0 .004-.004.004-.004a.901.901 0 0 0-.074.054M416.145 313.262c.261-1.672 2.656-5.184-.426-5.567-6.531.254-13.418-1.406-20.328-.644-19.957 2.09 18.148 2.875 20.086 2.504.347.191-.051 6.914.668 3.707M417.066 323.25v.004c-.187-1.387-.515-3.45-.87-5.106-1.298 5.293-.512 10.989-1.126 16.762-1.402.871-19.265 3.555-14.812 3.348 26.64 2.027 17.242.918 16.808-15.008" style="stroke:none;fill-rule:nonzero;fill:#243b98;fill-opacity:1"/><path d="M406.742 322.93c-1.781-.223-3.68-.446-5.637-.63-.085-3.566-.18-7.163.094-10.964 1.043.05 2.106.113 3.188.195 1.164.285 2.375.285 3.539.211-.653 3.317-1.02 7.473-1.184 11.188Zm6.211-12.285c-5.82.109-12.015-.668-18.25-.38-1.176.126-1.96.192-3.887.563 3.352.309 6.77.34 10.375.508-.476 2.976-.925 6.96-1.128 10.867-2.38-.207-4.825-.348-7.223-.363-.531 0-.867.023-1.043.066-.106-2.27-.324-4.558-.762-6.847-.45 5.144-.453 10.449-.426 16.058-.332 5.453-2.27 5.535 14.176 4.086-4.02-.426-8.344-.703-12.855-.96-.125-3.946.054-8.009-.121-12.126.77.352 4.375.942 8.207 1.121-.176 4.485.007 8.735.906 11.098.36-3.777.305-7.406.21-11.05 1.997.046 3.985-.028 5.606-.321-.398 8.832.332 15.113 1.059 1.418.047-4.121.035-8.078.137-12.64 4.007-.243 7.464-1.321 6.687 5.589.297-1.441 2.363-7.371-1.668-6.687" style="stroke:none;fill-rule:nonzero;fill:#243b98;fill-opacity:1"/><path d="M407.8 324.383h-.003c0 .05-.004.097-.004.148 0-.05.004-.101.008-.148M413.18 312.543c.11 6.77-1.137 13.8-.653 21.187.356-4.55 2.832-16.824.653-21.187M412.816 333.96c-.445.325-3.234-.144-7.414.778.055.184 6.211.922 7.414-.777M412.875 333.867a.616.616 0 0 1-.059.094c.036-.024.059-.059.059-.094M412.965 333.676c-.031.047-.059.097-.09.148a.08.08 0 0 1 0 .043c.035-.062.066-.125.09-.191M319.785 345.238c-.133.008-.23.008-.64.098-2.938.289-5.997-.23-9.297 1.117 3.074.113 6.761.492 9.937-1.215M320.71 311.172a4.88 4.88 0 0 1-.03.336c.004-.004.004-.004.004-.008-.016.11-.028.219-.043.328v-.012c-.063.43-.121.86-.172 1.293 0-.015 0-.023.004-.035-1.723 56.688 1.976 28.637.238-1.902M312.313 321.883c.03 0 .058-.004.09-.008l.042-.012c-.047.008-.086.016-.132.02" style="stroke:none;fill-rule:nonzero;fill:#243b98;fill-opacity:1"/><path d="M309.39 328.527c1.13.305 5.72.328 8.118-.168.11 2.743.297 5.493.515 8.23-.351.024-.847.052-1.57.083-2.09-.031-4.539-.047-6.906.527-.082-2.883-.133-5.77-.156-8.672Zm4.454-5.8c1.25-.325 2.691-.672 3.586-.934-.04 2.047-.008 4.105.066 6.168-1.933-.086-3.98-.305-6.305-.094-.925.121-1.503.242-1.8.344a489.215 489.215 0 0 1-.008-5.356c.687.07 2.203.04 4.46-.128Zm-7.711 17.046c-1.477-.27-3.172-1.035-4.977-.77-1.199.415-2.039.685-2.351.856.257-3.195.441-6.386.554-9.578 2.188-.441 4.485-.62 6.903-1.113-.149 3.734-.223 7.398-.13 10.605Zm.683-22.308a748.77 748.77 0 0 1-.207 4.125c-.5-.02-1.273-.02-2.382.008-1.418.207-2.73-.215-4.747 1.12a215.091 215.091 0 0 0-.078-5.019c1.391.18 4.946.09 7.414-.234Zm-7.336 5.281c1.125.063 5.352-.406 7.11-.77a564.19 564.19 0 0 0-.305 6.551c-.844-.05-1.754-.097-2.816-.023.008-.262-2.656.672-4.098 1.324.078-2.36.117-4.723.11-7.082Zm18.579 14.281.164 1.903a33.8 33.8 0 0 0 .328-2.078c.34-.133.683-.282 1.023-.45-.59.04-.523.086-.984.137 1-8.379-.856-17.129-.156-25.848-.618 3.48-.914 7.059-.997 10.68-.378.02-.894.05-1.578.113-.562.063-1.832.188-3.457.391-1.507.242-2.5.45-3.02.613.028-4.265.106-8.562.24-12.894-.669 6.156-1.474 12.574-1.567 18.996-.176.004-.352.004-.532 0 .122-4.274.247-8.05.235-11.274.27-.046.512-.101.722-.156-.23 0-.472-.008-.722-.023-.016-3.367-.18-6.125-.649-8.207-.035.187-.074.343-.168.96-.023.294-.16.837.145-.054-.02 2.059-.117 4.527-.246 7.219-1.54-.168-3.332-.45-5.031-.313-1.168.18-1.95.336-2.422.469A193.077 193.077 0 0 0 297.969 299c-2.266 15.078-1.91 30.762-.918 46.25.183 1.098.574 6.059.781 4.09.387-3.102.707-6.2.957-9.293.52.11 2.73-.004 7.348-.156.11 3.816.465 6.98 1.234 8.832-.172-7.426-.016-14.082.145-19.84l.539-.14c-.07 5.343.36 10.687 1.777 15.886a354.88 354.88 0 0 1-.273-7.102c2.73.313 5.66.461 8.5-.5M252.246 308.75c-2.34.293-5.059-.133-7.816 1.094 2.246-.23 4.965.105 7.832.39.82 4.164 1.004 8.715 1.25 13.383.011-.14 2.824-15.254-1.266-14.867" style="stroke:none;fill-rule:nonzero;fill:#243b98;fill-opacity:1"/><path d="M238.191 335.61c.493-4.005.883-8.122 1-12.294 2.239-.039 4.43-.109 6.368-.191.316 3.496.66 7.04.636 10.617.168-2.285.184-5.281.14-7.98-.003.023-.003.043-.003.066.02-.894.027-1.812.02-2.742 6.675-.313 9.78-.805-.016-1.012-.07-3.785-.379-7.765-1.098-11.64-.379 3.824-.113 7.722.235 11.683-1.703.09-3.903.153-6.262.203.07-3.836-.098-7.715-.633-11.574-.492 3.79-.492 7.664-.414 11.594-2.996.058-6.164.098-8.84.148.285-3.953.367-7.937-.375-11.918-.226 3.918-.52 7.903-.68 11.938-2.417.05-4.296.117-5.05.219.824.27 2.656.441 5.02.535-.153 4.261-.145 8.578.257 12.925-1.59.04-3.207.07-4.851.02-.22-2.953-.829-6.191-.817-9.617-2.023 14.937-2.68 11.137 18.399 10.394 1.347-.046-1.04-.25-2.457-.328.023 0 .046 0 .074.004-3.352-.668-6.781-.555-10.344-.473-.113-4.207.426-8.519.766-12.886 2.64.082 5.797.086 8.925.035.098 4.05.246 8.156 0 12.273" style="stroke:none;fill-rule:nonzero;fill:#243b98;fill-opacity:1"/><path d="M251.492 335.797c-.008.031-.02.055-.027.082h-.004c.012-.027.023-.055.031-.082Zm1.098-10.695c-.863 3.257-.977 6.992-1.14 10.78-1.552-.112-7.372.79-7.552 1.134 10.196-.317 9.082 4.43 8.692-11.914M182.66 290.938c.238 2.183.613 4.546.32 7.18 0-.009 0-.024.004-.032-.066.332-.117.621-.152.875-.52-.086-1.047-.168-1.586-.25.02-.125.04-.25.059-.379-.051.125-.102.242-.153.363-2.734-.406-5.672-.734-8.66-.695-2.05.195-3.43.367-4.265.523-38.883-1.324-77.165-1.691-116.082-2.316-26.094 2.285 44.925 2.2 43.511 2.07 30.078-.132 58.719 1.262 71.567.543-.688.594 8.035.793 13.71.442-.495 1.347-.82 2.765-1.066 4.515-24.258-.164-44.8-1.703-52.422-.496 5.93.91 11.387 1.305 17.668 1.196 42.742-1.036 34.871 4.546 36.063-5.235a47.906 47.906 0 0 0 1.633-.133c-.532 4.176 3.207-3.113-.149-8.171M252.07 246.695c2.13 1.274-.047 20.543.407 26.176-.32.004-9.028.113-4.973.488 2.047-.277 6.902 2.973 6.34-1.34-.606-4.859 2.375-23.769-1.774-25.324M252.07 246.695a.489.489 0 0 0-.226-.066c.078.016.148.039.226.066M385.82 241.676c-.004 0-.004 0-.011.004.007-.004 0 0 .011-.004Zm10.868-1.996c.414-.246.82-.516 1.218-.817-.32.078-.64.153-.96.227.714-1.793.968-3.98.8-6.207-.863 2-1.027 3.941-1.191 6.293-.508.117-1.024.23-1.543.34-16.703-3-33.196-3.25-50.13-4.68-23.5-1.918-38.96-4.191-51.722-3.945-1.058.043-7.031.187-5.12.547 3.272.824 6.554 1.43 9.839 1.894-2.39 17.488-1.797 35.824-.574 53.434 1.64-17.54 2.703-35.645.71-53.418 11.15 1.55 22.376 1.441 33.774 2.547 21.129.933 44.207 4.5 61.422 4.003-2.875.61-5.832 1.243-8.719 2.141h.887c-.45.066-.52.145.082.242 14.422 3.227 28.617 4.067 43.414 3.34-11.922-2.73-24.246-3.73-36.723-3.867-.25.008-1.125.02-2.183.047 2.254-.266 4.488-.84 6.547-2.02-.008.09-.012.18-.02.274.067-.121.133-.246.192-.375M439.46 298.59c.83.48 1.11.726 2.665 1.328-.164.133-.324.266-.48.402.02-.023.046-.043.07-.062-6.207 3.87 7.844-1.074-2.254-1.668" style="stroke:none;fill-rule:nonzero;fill:#243b98;fill-opacity:1"/><g clip-path="url(#c)"><path d="M108.664 107.395h.004-.004Zm-4.289-1.391c-.29.031-.871.137-1.023.289h-.004c1.738-.36 3.445.48 5.082 1.027-.004 0-.008-.004-.016-.004.031.012.063.02.094.032-.004-.004-.008-.004-.012-.004.055.015.11.031.164.05.028-.003.227.118.082-.003-.996-.668-3.469-1.496-4.367-1.387" style="stroke:none;fill-rule:nonzero;fill:#243b98;fill-opacity:1"/></g><path d="M104.93 106.535c.246.07.453.254.629.488-.102-.355-.192-.535-.63-.488M104.953 106.621a.86.86 0 0 0 .176.34.545.545 0 0 0-.176-.34M105.184 106.992a.951.951 0 0 0 .359.067c-.113-.059-.18-.102-.36-.067M104.25 106.418c.137.066.36.008.434.223-.004-.008-.004-.012-.008-.016.011.016.183.348.152.203-.074-.402-.074-.516-.578-.41" style="stroke:none;fill-rule:nonzero;fill:#243b98;fill-opacity:1"/><path d="M104.281 106.434c-.101.02-.36.398-.117.16a.652.652 0 0 0 .117-.16M104.074 106.715c.215.152 1.172.281.48.058a1.207 1.207 0 0 0-.48-.059M103.559 106.422c-.16.008-.29.031-.477.094.29.093 1.664-.036.477-.094" style="stroke:none;fill-rule:nonzero;fill:#243b98;fill-opacity:1"/><path d="M103.992 106.5c-.02.027-.055.035-.101.156.023-.027.066-.031.101-.156M103.402 106.617a2.515 2.515 0 0 0-.293.031c-.527.055.598.125.735.07a1.147 1.147 0 0 0-.442-.1" style="stroke:none;fill-rule:nonzero;fill:#243b98;fill-opacity:1"/><path d="M103.309 106.355c-.004 0-.004 0-.004.004 0-.004 0-.004.004-.004Zm.16-.039c0 .004 0 .004-.004.008.004-.004.004-.004.004-.008Zm.133-.136c-.25.086-.442.336-.715.457-.617.156-1.918.285-1.625 1.242.078-1.219 1.394-.25 2.34-1.7M101.25 108.105a4.175 4.175 0 0 0 1.027 1.262c.875.805 1.918 1.5 3.075 1.895-1.403-.996-2.88-1.899-4.102-3.157M106.512 111.563h.004-.004Zm-.293-.196Zm.004-.023c0 .004-.004.008-.004.011 0-.003 0-.007.004-.011Zm-.008-.004v.008-.008Zm-.16-.395c.28.075-.125.403.11.547a.661.661 0 0 0 .417.098 1.026 1.026 0 0 1-.363-.235c.05-.109.097-.464-.164-.41" style="stroke:none;fill-rule:nonzero;fill:#243b98;fill-opacity:1"/><path d="M106.781 111.145a.652.652 0 0 0-.246.421c.07-.086.207-.261.246-.421M105.844 111.074c.039.27-.25 1.016.383.895-.489-.078-.125-.551-.383-.895M106.355 111.668a.406.406 0 0 0-.14.238c.031-.047.09-.066.14-.238" style="stroke:none;fill-rule:nonzero;fill:#243b98;fill-opacity:1"/><path d="M105.867 112.242Zm-.535-1.152c.14.144.29.32.23.578v-.008c-.054.23.004.602.34.594-.48-.152.188-.977-.57-1.164M105.941 112.723c0 .004 0 .004-.004.004.004 0 .004 0 .004-.004Zm-.004-.063c-.257.04-.015.785.254.508.055-.082-.02.023-.12-.012 0 0 .003 0 .007.004-.074-.09-.281-.418-.043-.496h-.004c.035.012.012-.031-.094-.004M106.129 112.7v.003-.004Zm-.031-.079c.004.02-.004-.004.03.074h-.003c.008.016.012.032.02.047 0-.004-.004-.008-.004-.008.046.102.113.227.09.383.113-.152.039-.387-.133-.496" style="stroke:none;fill-rule:nonzero;fill:#243b98;fill-opacity:1"/><path d="M105.777 112.566c-.859.356.422 1.532.567.508-.18.625-1.086-.11-.5-.488.062-.02.05-.04-.067-.02" style="stroke:none;fill-rule:nonzero;fill:#243b98;fill-opacity:1"/><path d="M106.395 113.04v.003-.004Zm-.418-.544c.238.121.453.387.418.715.171-.27-.028-.758-.418-.715M106.227 112.113c-.18-.008-.262.188-.239.38.07-.118.075-.282.239-.38M105.89 112.273c0 .012.005.114-.09.27.075-.031.165-.16.09-.27M105.348 112.742l-.004.004.004-.004Zm.05-.113c-.738.187-.05 1.277.34.824-.445.195-.75-.762-.191-.785-.047-.031-.027-.055-.149-.04" style="stroke:none;fill-rule:nonzero;fill:#243b98;fill-opacity:1"/><path d="M105.473 112.816c-.2.133-.137.54.172.555a.452.452 0 0 1-.172-.555M113.586 114.918a.012.012 0 0 0 .008.004s-.004 0-.008-.004Zm-7.004-3.16c2.758 1.422 6.527 3.164 7.18 3.285-1.215-.867-2.614-1.332-3.98-1.953-1.071-.48-2.028-1.07-3.2-1.332M114.113 115.496s.004 0 .004.004c0-.004-.004-.004-.004-.004Zm-.258-.195c.836 1.168 2.012 1.488 3.172 2.101 1.496.664 3.95 1.813 5.137 1.516-3.207-.711-6.477-2.227-8.309-3.617M115.914 115.234c-.535.45-1.258.04-1.887 0 .59.313 1.47.782 1.887 0M116.824 113.074h.004-.004Zm-.394-.207c-.602-.05-.938.45-.86.86.153-.73 1.024-.715 1.64-.594-.187-.176-.48-.274-.78-.266M122.492 119c2.09 1.469 6.653 3.227 8.504 2.93-5.164-1.051-5.437-1.743-8.504-2.93M123.332 117.29c-.46.382-.375 1.503.41 1.39-.55-.098-.578-.89-.41-1.39" style="stroke:none;fill-rule:nonzero;fill:#243b98;fill-opacity:1"/><path d="M123.902 118.309h-.007.007Zm-.37-.797c-.462.336.374 1.433.534.625-.218.562-.836-.555-.34-.637-.042-.004-.085-.055-.195.012" style="stroke:none;fill-rule:nonzero;fill:#243b98;fill-opacity:1"/><path d="M123.688 117.219c.5.41.453 1.129.007 1.449.766-.121.711-1.234-.007-1.45M123.219 118.578h-.004.004Zm-.621-1.09c-1.207.492.144 2.457.64 1.055-.43.715-1.07.05-.883-.625.06-.172.141-.402.38-.402-.04-.008-.02-.047-.137-.028" style="stroke:none;fill-rule:nonzero;fill:#243b98;fill-opacity:1"/><path d="M122.762 117.863Zm.004-.011c-.391.265.183 1.05.32.402l-.047.07v-.008c-.18.262-.379-.23-.277-.453 0-.004 0 0 .004-.011M122.883 117.695Zm.004-.3c0 .007-.004.011-.004.015 0-.004.004-.012.004-.015Zm0-.157Zm.031-.504c.14.7-.367.414-.035.961.004-.074-.024-.191.008-.304.199-.036.21-.485.027-.657M123.23 116.645c-.054.218-.074.46-.011.71.047-.218.105-.464.011-.71M123.418 116.523c-.031.204-.05.446.059.684.003-.203.05-.453-.059-.684M119.262 114.125Zm.52-1.816c-.747.066-1.294 1.586-.43 1.855-.586-.336-.07-1.648.52-1.836.034-.004.026-.023-.09-.02M120.238 114.188Zm-.043-1.946c.004.004.008.008.016.012l-.004-.004c.488.383.34 1.504.031 1.938.547-.348.801-1.668-.043-1.946" style="stroke:none;fill-rule:nonzero;fill:#243b98;fill-opacity:1"/><path d="M119.992 112.316c.516.454.23 1.805-.437 1.961h.015c-.086.106-.578-.097-.453-.02 1.008.825 1.988-1.362.875-1.94" style="stroke:none;fill-rule:nonzero;fill:#243b98;fill-opacity:1"/><path d="M118.89 113.266c-.144.355-.132.855.282 1.078-.285-.36-.195-.64-.281-1.078M120.105 112.25c.887.445 1.946.805 2.762 1.371-.836-.894-1.629-1.21-2.762-1.371M119.023 114.3c.72.7 2.446 1.29 3.282 1.235-1.082-.39-2.211-.734-3.282-1.234M123 113.863c.059.524-.035 1.512-.676 1.84.797-.098 1.106-1.191.676-1.84M123.547 113.586c.312.215.66.445 1.043.582.258.129.637.11.863.352-.016-.297-1.695-.961-1.906-.934" style="stroke:none;fill-rule:nonzero;fill:#243b98;fill-opacity:1"/><path d="M125.406 114.484c.164.38.422.735.735 1.043-.149-.375-.36-.804-.735-1.043M124.828 115.008c-.004.012-.21 0-.02.043.446.066.708.773 1.231.453-.46.066-.707-.598-1.21-.496M123.719 113.824c.34.504.203.219.328.778-.063-.102.332-.47-.328-.778" style="stroke:none;fill-rule:nonzero;fill:#243b98;fill-opacity:1"/><path d="M123.715 114.508c.25.195.555.414.902.453a1.885 1.885 0 0 0-.902-.453M126.875 113.742c-.457.031-1.297.227-1.457.57.16-.183 2.586-.609 1.457-.57" style="stroke:none;fill-rule:nonzero;fill:#243b98;fill-opacity:1"/><path d="M126.371 114.008c.125.383.461.66.797.91-.188-.352-.457-.645-.797-.91" style="stroke:none;fill-rule:nonzero;fill:#243b98;fill-opacity:1"/><path d="M127.7 114.785c-.204.008-.388.242-.618.13.008.007.016.019.043.046.2.258 1.824-.469.574-.176M126.746 115.117h-.004.004Zm-.953-.762c.262.31.57.555.95.762 0-.004 0-.004-.005-.004.11.04.121.047.094.032-.066-.032-.113-.008 0 0h.004c-.004 0-.008-.004-.012-.004h.004c-.27-.313-.605-.653-1.035-.786" style="stroke:none;fill-rule:nonzero;fill:#243b98;fill-opacity:1"/><path d="M126.96 115.07c-.14.02-.202.063.044.04.11-.024.117-.04-.043-.04M126.473 115.152Zm-.102-.02c-.05-.015-.488.313-.246.208.098-.047.648-.3.246-.207M128.809 115.055c0 .004 0 .004.004.004-.004 0-.004 0-.004-.004Zm-2.352-1.996c.11.527 2.348 2.09 2.563 2.195-2.168-2.121-1.48-1.246-2.563-2.195" style="stroke:none;fill-rule:nonzero;fill:#243b98;fill-opacity:1"/><path d="M126.648 113.063h.004-.004Zm-.039-.043c-.32 0 .543.125 1.2.558.25.152 1.265 1.3 1.43 1.574.003.082-.41.082-.15.114.763.113-.655-1.434-.816-1.625-.418-.418-1.046-.618-1.664-.621" style="stroke:none;fill-rule:nonzero;fill:#243b98;fill-opacity:1"/><path d="M131.25 112.555c-1.016.039-2.688.632-3.309.91 5.196-1.153 3.485-.867 3.309-.91" style="stroke:none;fill-rule:nonzero;fill:#243b98;fill-opacity:1"/><path d="M131.11 111.969c.433.625.96 1.265 1.718 1.566l-.004-.004c.016-.004.34.18.219.078-.688-.511-1.188-1.168-1.934-1.64" style="stroke:none;fill-rule:nonzero;fill:#243b98;fill-opacity:1"/><path d="M131.102 111.988c1.824.633 1.335.899 1.996.86-.66-.239-.52-.88-1.996-.86" style="stroke:none;fill-rule:nonzero;fill:#243b98;fill-opacity:1"/><path d="M133.016 113.535v.004-.004Zm.007-.094.004.004-.004-.004Zm.012-.71c.125.296-.238.12-.02.804-.054.04.137.059.036-.32 0-.153.203-.363-.016-.485M132.043 113.258a1.316 1.316 0 0 0-.281.074h.004c-.04.031-.61.23-.317.188.344-.004 1.34-.368.594-.262" style="stroke:none;fill-rule:nonzero;fill:#243b98;fill-opacity:1"/><path d="M130.82 113.086c.055.059.125.144.196.25v-.004c.015.086.648.625.37.285 0 0 0 .004.005.004-.141-.187-.286-.465-.57-.535M131.18 113.574h-.004.004Zm0 0c-.403.004-.809.14-1.184.356.352-.032 1.004-.145 1.184-.356" style="stroke:none;fill-rule:nonzero;fill:#243b98;fill-opacity:1"/><path d="M129.477 113.316c.07.336.378.586.62.868-.081-.348-.347-.606-.62-.868" style="stroke:none;fill-rule:nonzero;fill:#243b98;fill-opacity:1"/><path d="M129.645 114.047c-.23.012-.86.289-.872.36.344-.005 1.645-.438.872-.36M133.559 111.871c-.375.024-1.137.277-1.29.399.528.062 2.286-.52 1.29-.399" style="stroke:none;fill-rule:nonzero;fill:#243b98;fill-opacity:1"/><path d="M133.82 111.93c.07.168.235.34.43.43a1.254 1.254 0 0 0-.43-.43M133.723 112.473c-.125-.004-.91.382-.547.289.625-.114 1.77-.364.547-.29M137.875 110.152c-.691.098.52.828.668 1-.129-.28-.34-.515-.563-.789.23-.05.508-.078.786-.11a1.78 1.78 0 0 0-.891-.1" style="stroke:none;fill-rule:nonzero;fill:#243b98;fill-opacity:1"/><path d="M138.633 110.29c-.383.151-.34.507-.102.78-.011-.277-.136-.539.102-.78M138.121 110.738c-.89-.066-5.871 1.942-3.375 1.164-.008.004-.012.004-.016.004 1.13-.36 2.286-.656 3.391-1.168M137.621 110.277Zm-.894-.23c-8.22 1.816-6.649 1.86-.25.273-.004.004-.004.004-.008.004.351-.117.758 0 1.152-.047-.02-.03-.637-.215-.894-.23" style="stroke:none;fill-rule:nonzero;fill:#243b98;fill-opacity:1"/><path d="M130.914 111.504c-1.824.16-3.613.695-5.426 1.058-1.09.208-2.164.247-3.254.52 1.66.129 3.325-.312 4.957-.684 1.258-.285 2.485-.496 3.723-.894M126.191 115.617c.813.774 1.973 1.086 2.985 1.578 1.058.422 1.972.957 3.066 1.317-1.61-.938-4.008-2.008-5.953-2.844-.02-.008-.035-.02-.098-.05M134.816 114.3c-2.265 2.548-3.164 3.458-3.289 3.727 1.364-1.18 2.61-2.418 3.29-3.726M135.023 114.309c-.035.02-.12.004-.257.144.254-.144 1.105.3 1.375.375-.301-.254-.664-.547-1.118-.52" style="stroke:none;fill-rule:nonzero;fill:#243b98;fill-opacity:1"/><path d="M136.2 114.941Zm.007-.011v.004-.004Zm-.004-.008v.004-.004Zm-.226-.227c.05.059.218.114.226.243-.238.187-.398 1.828-.535 2.332a67.45 67.45 0 0 0-.527 2.73c.445-.543.824-3.5.945-3.879.176-1.39.46-1.195-.11-1.426" style="stroke:none;fill-rule:nonzero;fill:#243b98;fill-opacity:1"/><path d="M140.387 119.031c-12.2 1.938-3.54 1.156.078-.008.008-.003-.024 0-.078.008" style="stroke:none;fill-rule:nonzero;fill:#243b98;fill-opacity:1"/><g clip-path="url(#d)"><path d="M141.102 119.504c-2.977 1.082-3.407 1.012-5.192 1.543 1.367.094 4.45-1.238 5.36-1.582.175-.063-.051-.008-.168.039" style="stroke:none;fill-rule:nonzero;fill:#243b98;fill-opacity:1"/></g><g clip-path="url(#e)"><path d="M140.25 119.117c.344.172.738.406 1.176.328-.363-.148-.746-.289-1.176-.328" style="stroke:none;fill-rule:nonzero;fill:#243b98;fill-opacity:1"/></g><path d="M134.074 120.43c.27.347.711.437 1.133.597-.297-.293-.71-.46-1.133-.597M136.29 121.105c.284.317.573.637.597 1.125.168-.476.039-.87-.598-1.125M131.414 121.902c.004.004.004.004.008.004-.004 0-.004 0-.008-.004Zm-.05-.113c-.673-.008.109.121.491.219 1.06.11 2.083.125 3.153.281.312.059 2.117-.055 1.523-.082-1.449-.055-2.828-.316-4.273-.39h.004a71.1 71.1 0 0 0-.461-.012h.027c-.133-.004-.3-.012-.465-.016M130.945 121.914c-.812.305-1.207.992-.215.207v.004c.055-.05.141-.133.215-.21" style="stroke:none;fill-rule:nonzero;fill:#243b98;fill-opacity:1"/><g clip-path="url(#f)"><path d="M130.242 122.543c.23.144.512.285.828.281-.23-.125-.523-.297-.828-.281" style="stroke:none;fill-rule:nonzero;fill:#243b98;fill-opacity:1"/></g><path d="M133.2 122.047c-.774.187-1.555.379-2.325.676.805.093 1.621-.258 2.324-.676M119.316 112.258h.004-.004Zm-10.433-4.856c1.39 1.07 3.152 1.575 4.73 2.371 1.961.836 3.82 1.872 5.867 2.555-4.851-2.34-10.273-4.887-10.597-4.926M109.004 108.309h.004-.004Zm-.043-.297c.008.113-.121.441.187.312a4.163 4.163 0 0 0-.144-.015v-.008.008a.89.89 0 0 0-.043-.297" style="stroke:none;fill-rule:nonzero;fill:#243b98;fill-opacity:1"/><path d="M109.035 108c-.055.047-.023-.004.016.035v-.004c.031.059.05.082.086.305.008-.063.07-.254-.102-.336M109.496 108.496v.004-.004Zm-.016-.062Zm-.02-.282c-.038.067-.128.457.145.387-.113-.023-.128-.023-.14-.27v.008c-.004-.05-.004-.027-.004-.125M109.563 108.223c0 .004 0 .004.003.004-.004 0-.004 0-.004-.004Zm-.047-.035c-.07.019.007 0 .058.054v-.008c.051.079-.004.223.086.332-.05-.07.09-.382-.144-.379M109.93 108.684h.004-.004Zm-.043-.313s-.055.434.078.32h.004c-.008 0-.016.004-.04-.007-.003-.07 0-.196-.042-.313M109.93 108.375c.105.027.05.207.093.363 0-.09.11-.355-.093-.363M110.395 108.914v.004-.004Zm-.043-.227c.058.047-.114.387.144.266-.016 0-.027 0-.074-.004h.004-.031c-.016-.074.046-.168-.043-.261" style="stroke:none;fill-rule:nonzero;fill:#243b98;fill-opacity:1"/><path d="M110.402 108.652c.016.012.035.02.051.028h-.004c.004.004.008 0 .02.02 0-.005 0-.005-.004-.005.027.575.18-.03-.063-.043M110.77 108.86c.043.011-.106.359.144.285-.14-.012-.055-.063-.144-.286M110.883 108.879Zm-.028-.031c-.023.004-.07.004.02.027v-.004c.008.008.004.004.016.02l-.004-.004c.07.55.14-.047-.032-.04M111.227 109.063c.054.054-.012.449.187.347h.004c-.172-.008-.008-.101-.191-.347" style="stroke:none;fill-rule:nonzero;fill:#243b98;fill-opacity:1"/><path d="M111.332 109.082c-.012.008-.133.016.004.027h-.004l.016.012c-.004 0-.004 0-.004-.004.043.063.074.184.105.301.004-.055.031-.29-.117-.336M111.762 109.523Zm-.004-.02Zm-.07-.19Zm-.012-.032c-.008.004.004.051.004.016.035.086-.016.332.175.297-.011-.004-.023-.008-.07-.028h.004c-.008 0-.012-.004-.016-.011 0 .004.004.004.004.004l-.015-.04c-.028-.046 0-.19-.086-.238" style="stroke:none;fill-rule:nonzero;fill:#243b98;fill-opacity:1"/><path d="M111.785 109.305c-.012-.004-.09.03-.02.02h-.003.015c.004 0 .008.003.012.007 0-.004 0-.004-.004-.004.008.004.012.008.016.012l-.004-.004c.043.066.129.418.086.11v.003c-.012-.043-.016-.129-.098-.144M112.223 109.77Zm-.016-.02v.004-.004Zm-.117-.273c.035-.008.008.382.187.296-.12.028-.05-.14-.187-.296M112.27 109.68v.004-.004Zm-.079-.16Zm-.039-.024.024.012c.066.058.094.137.11.281.026-.074.026-.297-.134-.293M112.625 109.945v-.004.004Zm0 .016Zm-.05-.172Zm0-.09c.027.082-.083.395.136.348-.008-.016-.012.012-.09-.047.004 0 .004.004.004.004 0-.008-.004-.008 0-.043v-.004.004-.016.004-.008c-.012-.043.027-.05-.05-.242M112.605 109.723c.008.004 0-.008.047.015.004.004.012.008.016.016v-.004c.031.047.039.16.066.262.004-.07.051-.325-.129-.29M113.05 109.98v.004-.004Zm.044-.066Zm-.078.031c-.008.055-.051.317.14.25-.011-.007-.031-.007-.074-.015-.027-.067-.035-.137-.027-.246v.004c0-.004.004-.008.004-.012.004 0-.004-.008.023-.016h-.004c.086.043-.023-.078-.062.035" style="stroke:none;fill-rule:nonzero;fill:#243b98;fill-opacity:1"/><path d="M113.078 109.918c.004.004.008 0 .031.012.004.004.008.007.012.015 0-.004 0-.004-.004-.004.024-.03.043.34.063.2-.008-.012.05-.223-.102-.223M113.492 110.18c.004.066-.062.297.121.254-.015-.008 0 0-.043-.012-.007-.004-.015-.004-.02-.012v.004a.03.03 0 0 1-.015-.016s0 .004.004.004c-.02-.035 0-.074-.047-.222M113.523 110.172Zm-.023-.008c.008.004 0 0 .023.008.055.027.09.078.114.289.027-.078.043-.32-.137-.297M114.004 110.59Zm-.043-.106v.008-.008Zm-.008-.136c-.047.066-.074.336.137.265-.117 0-.153-.125-.137-.265M113.984 110.375c.008.008.012 0 .036.023-.004 0-.004 0-.004-.003.015.027.023.027.074.207.004-.04.02-.223-.106-.227M106.95 106.836c.527 1.062-.731 1.762 1.046 2.023-1.676-.629-.246-.617-1.047-2.023M107.813 107.258c.109.207.156.46.207.73-.004-.004-.004-.008-.004-.011.058.214.015.468.03.742.122-.461.169-1.055-.234-1.461M114.75 111.852l.004.003-.004-.003Zm-.113-1.47c.304 1.376-.496 1.552.504 1.7.035 0 .082.02.226.027-.195-.074-.414-.125-.617-.265.059-.465.133-.98-.113-1.461M115.453 111.934Zm-.152-1.266c.058.422.144.871.144 1.34.106-.403.094-.934-.144-1.34" style="stroke:none;fill-rule:nonzero;fill:#243b98;fill-opacity:1"/><path d="M114.965 110.902v.004-.004Zm-.067-.015v.004-.004Zm.016-.051Zm-.023-.016c-.094.082.062.203.09.067-.008.004-.004.011-.032.027h.004c-.004 0-.004.004-.023.004h.004c-.004 0-.008-.004-.012-.004.004 0 .004.004.004.004-.004-.004-.012-.004-.016-.008.004 0 .004 0 .004.004 0-.004-.004-.004-.012-.016v.004c0-.004-.007-.004-.004-.027v.008c-.02-.047.141-.13-.007-.063M115.738 111.406c.004 0 .004 0 .004.004 0-.004 0-.004-.004-.004Zm-.058-.328c-.008.082-.13.41.132.356-.019-.012-.062.004-.109-.063v.004c-.004-.082-.004-.18-.023-.297M115.723 111.117l.035.059c.015.039.074.074.066.273a.237.237 0 0 0-.101-.332M116.156 111.578c.004 0 .004 0 .004.004 0-.004 0-.004-.004-.004Zm-.008-.012c.004 0 .004.004.004.004s0-.004-.004-.004Zm-.043-.195c-.02.14-.054.297.192.258-.008-.031-.16.055-.192-.258M116.121 111.367c.043.012.117.012.168.2-.004-.07.004-.247-.168-.2M116.5 111.484c-.023.079-.09.368.14.356-.132-.031-.113-.207-.14-.356" style="stroke:none;fill-rule:nonzero;fill:#243b98;fill-opacity:1"/><path d="M116.637 111.816Zm-.114-.293c.004.004 0 0 .016.004.094.028.086.18.094.313.027-.07.094-.328-.11-.317M116.96 111.68c.017.05-.136.402.13.382-.16-.05-.067-.14-.13-.382M117.121 111.902Zm-.133-.164h.02c.004 0 .012 0 .015.004.036.02.086.074.098.16v-.004.004c-.008.344.14-.234-.133-.164M117.434 112.203v.004-.004Zm-.028-.273c.024-.004-.16.382.14.351-.136-.015-.109-.129-.136-.32v.004c0-.008 0-.02-.004-.028 0-.003.004.004 0-.007M117.434 111.945c.09-.02.125.453.132.243v.003c.016-.078.012-.222-.132-.246M117.898 112.445Zm-.054-.09v.004-.004Zm-.024-.226c-.011.055-.101.383.125.324-.113.008-.101-.133-.125-.324M117.926 112.293v.004-.004Zm-.07-.137c.058.016.074.16.101.281.004-.07.04-.257-.102-.28M118.328 112.652Zm-.023-.015v.004-.004Zm-.008-.012c0 .004 0 .004.004.004-.004 0-.004 0-.004-.004Zm-.02-.094v.004-.004Zm-.011-.082Zm-.024-.152c-.012.02-.09.41.133.363-.016-.004-.004.008-.063-.015l.004.003c-.023-.027-.015-.007-.03-.074 0-.008 0-.004-.009-.039-.004-.043-.015-.101-.035-.238M118.27 112.32c.007.012 0-.007.046.035 0 0-.004 0-.004-.003.004.015.079.09.086.328.04-.094.055-.336-.128-.36M109.535 116.395c-.004.003-.004.007-.008.011.004-.004.004-.008.008-.011Zm.453-.594c-.949.355-1.25 1.66-.355 2.293-.559-.672-.336-1.922.523-2.293-.031 0-.058-.02-.168 0" style="stroke:none;fill-rule:nonzero;fill:#243b98;fill-opacity:1"/><path d="M109.527 116.809c-.246.148-.285.863.2 1.054-.211-.3-.325-.668-.2-1.054M110.813 116.191c.015.286.003.575-.07.887v-.004c-.11.45-.384.86-.884 1.035 1.012.012 1.336-1.093.954-1.918" style="stroke:none;fill-rule:nonzero;fill:#243b98;fill-opacity:1"/><path d="M110.14 115.895c.54.035.63 1.69-.347 2.023 1.32-.106 1.16-2.16.348-2.023" style="stroke:none;fill-rule:nonzero;fill:#243b98;fill-opacity:1"/><path d="M110.152 115.758c.012.004.024.004.07.015.95.184 1.805.707 2.77.93-.832-.531-1.793-1.027-2.84-.945M113.809 115.313c-.098.23-.395.394-.575.59.004-.005.004-.008.008-.012a2.306 2.306 0 0 1-.62.492c.554-.043 1.218-.66 1.187-1.07M116.527 117.137v.004-.004Zm.004-.137c-.234.336-.039.965.074 1.344h.004c-.004.015-.046.094.028.004.043-.43-.086-.895-.106-1.348M116.293 118.441c-.098.516.379.473.398.149-.02.062-.27.32-.398-.149M115.91 117.605c.024.086.328 1.332.278.676v.012c-.008-.223-.09-.508-.278-.688M114.762 117.25c.476.41.89.93 1.363 1.387-.074-.496-.875-1.258-1.363-1.387" style="stroke:none;fill-rule:nonzero;fill:#243b98;fill-opacity:1"/><path d="M116.379 118.738v.004-.004Zm-.008-.086c.047.368.035.766.04 1.164.163-.351.25-.804-.04-1.164M117.258 119.656v.004-.004Zm-.04-.015c-.452.062-.452.687-.136.945-.11-.273-.168-.785.203-.938-.012-.003-.023-.003-.066-.007" style="stroke:none;fill-rule:nonzero;fill:#243b98;fill-opacity:1"/><path d="M116.79 119.531c-.685.422-.267 1.5.456 1.309-.547-.086-.797-.84-.457-1.309M116.875 119.531h.008-.008Zm-.102-.031c-.046 0-.027.031.188.035.059.012.031-.023.191.02-.02-.075-.234-.114-.379-.055" style="stroke:none;fill-rule:nonzero;fill:#243b98;fill-opacity:1"/><path d="M117.125 119.543c.445.121.598 1.203.023 1.383.727.074.774-1.418-.023-1.383M116.242 119.965c-.48.289-.035 1.094.387.902-.305-.05-.652-.558-.387-.902" style="stroke:none;fill-rule:nonzero;fill:#243b98;fill-opacity:1"/><path d="M115.965 119.816c-.988.813.36 2.032.847 1.012-.48.559-1.355-.183-.847-1.012" style="stroke:none;fill-rule:nonzero;fill:#243b98;fill-opacity:1"/><path d="M116.027 119.781c-.09-.047-.398.336-.207.18.137-.14.844-.117.207-.18M117.027 119.309c0 .004.004.004.004.007 0-.004-.004-.004-.004-.007Zm-.03-.032c.003 0 .003.004.003.004s0-.004-.004-.004Zm-.204-.367c0 .004.004.004.004.004s-.004 0-.004-.004Zm0-.156c-.234.371.098.523.344.75.047-.047-.008-.086-.133-.219-.11-.125-.242-.308-.211-.531M119.102 118.648c0 .004-.004.004-.004.004s.004 0 .004-.004Zm0-.003-.004.003.004-.003Zm.191-.18c-.246.023-.402.043-.34.394-.351-.355.14.567.14-.203.231-.152.665-.133.2-.191" style="stroke:none;fill-rule:nonzero;fill:#243b98;fill-opacity:1"/><path d="m118.078 118.824-.004.004.004-.004Zm.438-.199c-.16.023-.52-.04-.543.238-.016-.004-.028-.011-.043-.015h.004l-.024-.012c.063.172.086.02.238-.035.153-.016 1.145-.172.368-.176M116.992 118.867h-.004.004Zm.254-.137a1.838 1.838 0 0 0-.45.13c.302.011.602.015.946-.02h-.004c.211.02-.25-.145-.492-.11M117.14 117.512c-.038-.008-.488.101-.394.11.336.081 1.453-.13.395-.11M109.645 118.121c.918.625 2.113 1.012 3.257.809-1.082-.176-2.195-.418-3.257-.809" style="stroke:none;fill-rule:nonzero;fill:#243b98;fill-opacity:1"/><path d="M113.242 117.977c-.004.003-.004.003-.004.007 0-.004 0-.004.004-.007Zm.024-.32c.027.32-.22 1.054-.422 1.425.32-.227.734-.996.422-1.426" style="stroke:none;fill-rule:nonzero;fill:#243b98;fill-opacity:1"/><path d="M113.094 118.82c.191.075.433.16.68.14-.196-.085-.422-.202-.68-.14M113.984 118.59c-.054.074-.03.25-.171.3.136.044.21-.16.171-.3M114.04 118.492Zm-.036-.023v.004-.004Zm-.055-.031v.003-.004Zm-.644-.485c.199.219.449.39.738.54h-.004c.168.019-.559-.579-.734-.54M113.48 117.18c.004 0 .008.004.008.004s-.004-.004-.008-.004Zm-.875-.606c.27.309.672.461 1.024.711-.203-.355-.606-.601-1.024-.71M114.008 119.563c-.211.082-.637.027-.531.43v-.005c.011-.195.343-.25.53-.425M113.012 119.387c.008.011.011.02.02.031v-.004c.148.191.265.45.433.676-.035-.262-.133-.594-.453-.703M113.074 119.863c-.023-.043-.422.153-.281.133.047-.023.676-.129.281-.133M111.988 119.387c.285.328.586.691.809 1.101-.043-.453-.313-.949-.809-1.101M111.156 119.285v.004-.004Zm-.078-.101c.2.539 1.129 1.48 1.77 1.457-.618-.383-1.215-.946-1.77-1.457" style="stroke:none;fill-rule:nonzero;fill:#243b98;fill-opacity:1"/><path d="M111.352 119.879c-.622.117-1.157.355-1.383.574.386-.074 2.332-.703 1.383-.574M108.727 120.082l.003.012-.003-.012Zm0-.012v.004-.004Zm-.004 0v.004-.004Zm.015-.023v.004-.004Zm.012-.008-.008.008.008-.008Zm1.746-1.387c-.457.29-.965.543-1.387.938.004-.004.012-.008.02-.016-.086.149-.652.367-.48.574.195.11.367.278.078-.066.593-.445 1.37-.82 1.77-1.43" style="stroke:none;fill-rule:nonzero;fill:#243b98;fill-opacity:1"/><path d="M109.73 121.102Zm-.082-.004c-.003.004-.003.004-.007.004.004 0 0 0 .007-.004Zm-.918-.973h.004-.004Zm-.097-.04c.14.044.277.169.414.313-.004 0-.004 0-.004-.003.289.207.332.714.656.882.207-.035.094-.445.067-.632-.02.093-.051.234-.082.367-.164-.403-.524-.953-1.051-.926M113.465 119.066c.34.356 1.043 1.047 1.398 1.04-.476-.32-.804-.856-1.398-1.04M114.035 118.547c.352.473.676.984.887 1.578.09-.633-.352-1.227-.887-1.578" style="stroke:none;fill-rule:nonzero;fill:#243b98;fill-opacity:1"/><path d="M115.332 119.063c-.203.03-.406.109-.594.257.11-.007.282-.047.43-.11-.004 0-.004.005-.004.005.145-.063.594-.274.168-.153" style="stroke:none;fill-rule:nonzero;fill:#243b98;fill-opacity:1"/><path d="M115.563 118.445c-.094.293-.083.535-.008.852v-.004c.218.516.265-1.106.093-.309-.039-.16-.027-.343-.085-.539" style="stroke:none;fill-rule:nonzero;fill:#243b98;fill-opacity:1"/><path d="M115.629 118.61Zm-.113-.075c.222.16.484.305.746.461-.168-.23-.418-.453-.746-.46M115.438 118.066c-.356.047-.7.196-1.016.43-.102.16.805-.254 1.016-.43M115.586 118.348c-.145-.04-1.09.488-.863.46.32-.035 1.261-.59.863-.46M112.805 118.977c-.184-.012-1.114.664-.739.507.414-.129.657-.355 1.032-.578-.075.012-.192.04-.293.07M118.66 113.809a1.131 1.131 0 0 0-.16.023l.016-.004c-.004.016-.73.102-.43.133.312.129 1.035-.262.574-.152M118.035 114.125c.102 1.027 2.27 1.871 2.871 1.867-.62-.312-1.222-.562-1.828-.949.008.008.016.012.024.02-.36-.254-.836-.481-1.063-.922l.004.004-.008-.02M124.508 115.066c.43.438.988.797 1.246 1.418-.02-.66-.574-1.218-1.211-1.406l-.035-.012M125.68 116.54c.004 0 .004.003.004.003s0-.004-.004-.004Zm-1.52-1.325c.36.574.781 1.32 1.57 1.34-.582-.29-1.043-.91-1.57-1.34" style="stroke:none;fill-rule:nonzero;fill:#243b98;fill-opacity:1"/><path d="M123.527 116.953h-.004.004Zm1.336-.836c-.398.254-1.168.61-1.394.899.515-.196 1.097-.38 1.394-.899M121.746 116.3c.414.208.707.653 1.188.802-.309-.34-.653-.77-1.188-.801M123.027 114.46c.094.071.235.173.391.22h-.008c.445.187-.195-.262-.383-.22M123.582 114.797c-.043.23-.129.512-.258.75.235-.156.383-.457.258-.75M122.965 115.535c-.16.024-.668-.031-.082.11.324.015.812-.082.082-.11" style="stroke:none;fill-rule:nonzero;fill:#243b98;fill-opacity:1"/><path d="M123.477 115.598c.335.332.71.66 1.05 1.039-.156-.457-.53-.922-1.05-1.04M122.41 115.938c.094.285.531.3.563.648.164-.367-.293-.457-.563-.648M133.293 119.223c.379.363.863.62 1.371.847-.363-.382-.809-.734-1.371-.847M125.883 116.164c0 .004 0 .004-.004.004.004 0 .004 0 .004-.004Zm-.012-.289c0 .09-.148.422.113.355-.015-.003-.035 0-.086-.023l.004.004c-.004-.004-.007-.004-.015-.016v.004c-.004-.02-.008 0-.004-.062-.004-.043.031-.11-.012-.262M125.938 115.926c.03.047.136.047.085.25.047-.07.114-.215-.085-.25M126.316 116.383l.004.004-.004-.004Zm-.004-.008Zm-.023-.262c-.023-.008-.078.38.074.301h.004c-.07-.02-.062-.078-.078-.3M126.328 116.14Zm.027-.011c-.05.039.02-.102.051.308.004-.07.07-.261-.05-.308M126.723 116.297c-.059.055-.13.344.093.297-.113-.004-.12-.153-.093-.297" style="stroke:none;fill-rule:nonzero;fill:#243b98;fill-opacity:1"/><path d="M126.828 116.41v.004-.004Zm-.086-.09c.004.012.098-.004.09.172-.059.223.172-.172-.09-.172M127.074 116.48c-.02.082-.047.356.156.297-.12-.004-.125-.156-.156-.297" style="stroke:none;fill-rule:nonzero;fill:#243b98;fill-opacity:1"/><path d="M127.098 116.48c.082.028.082.168.117.293-.004-.078.058-.28-.117-.293M127.5 116.793v.008-.008Zm-.008-.125c-.004.008-.137.375.117.328-.12-.02-.109-.172-.117-.328M127.637 116.832v.004-.004Zm-.094-.129c-.004 0-.012.004-.02.012.118.031.118.16.122.324-.008-.031.152-.25-.102-.336M127.945 117.098Zm-.011-.043v.007-.007Zm-.067-.25c.125.324.137.336.094.308-.09-.226-.133.008 0 0-.004-.004-.012-.008-.016-.015l.004.004c0-.004-.004-.004-.004-.004a.056.056 0 0 1-.007-.024v.004c-.016-.078-.028-.168-.07-.273M127.902 116.852c.012.003 0 0 .043.023.004.012.082.023.102.246.031-.094.035-.27-.145-.27M128.379 117.34h.004-.004Zm-.05-.3c-.11.026-.013.425.097.312-.008 0-.02 0-.031-.004h.003c-.003 0-.02 0-.03-.024l.003.004c-.008-.058-.07-.164-.043-.27h-.004c.008-.003.012-.011.02-.011.011-.004.027-.016-.016-.008M128.375 117.063c.027.05.055.156.086.25-.008-.094.035-.141-.086-.25M128.742 117.227c-.137 0 .004.554.125.316-.012.008.004.004-.047.039-.023-.074-.11-.125-.093-.328v.004c.003-.012 0 0 .015-.031" style="stroke:none;fill-rule:nonzero;fill:#243b98;fill-opacity:1"/><path d="M128.742 117.254c.082.062.09.187.137.328-.004-.102.039-.277-.137-.328M129.07 117.453v.004-.004Zm0-.082c-.047.055-.074.309.13.324-.09-.07-.134-.101-.13-.324M129.176 117.473h.004-.004Zm-.074-.106c.011.024.054.067.082.121v-.008c.015.043-.008.028.043.184-.008-.059.066-.207-.125-.297M129.54 117.855v.004-.004Zm-.056-.136v.004-.004Zm.004-.149c-.09.09-.066.371.145.332-.016-.007-.031-.007-.078-.03l.004.003c-.051-.063-.102-.117-.07-.305" style="stroke:none;fill-rule:nonzero;fill:#243b98;fill-opacity:1"/><path d="M129.52 117.613c.003.004.023.008.03.035v-.003c.009.015-.007.007.055.222-.003-.058.032-.226-.085-.254M129.945 118.04Zm-.007-.017Zm-.043-.23c-.028.078-.051.305.12.316-.077-.023-.1-.168-.12-.316M129.91 117.805c.082.035.094.164.113.285.012-.082.059-.266-.113-.285M130.34 118.2v.003-.004Zm-.078-.263c-.032.098-.051.32.129.286-.102-.008-.114-.157-.13-.285" style="stroke:none;fill-rule:nonzero;fill:#243b98;fill-opacity:1"/><path d="M130.262 117.953c.097-.035.152.43.156.227h-.004c.02-.07-.012-.235-.152-.227M132.207 118.977c-.066.398-.05.789-.133 1.218-.015.153.246.149.434.27-.621-.496-.074.07-.301-1.488M132.39 118.98c-.003-.011-.171.067-.093.055.094-.066.398.184.547.317-.074-.149-.235-.368-.453-.372M132.504 120.586v.004-.004Zm-.024 0Zm.368-.863s-.004 0-.004.004c0-.004.004-.004.004-.004Zm.004-.254c.02.031-.086 1.199-.383 1.117.312.191.586-.813.383-1.117" style="stroke:none;fill-rule:nonzero;fill:#243b98;fill-opacity:1"/></svg>